<svg class="quill-fill" viewBox="0 0 1024 1024" version="1.1" xmlns="http://www.w3.org/2000/svg" width="18" height="18"><path d="M112 160h800a16 16 0 0 1 16 16v96a16 16 0 0 1-16 16H112a16 16 0 0 1-16-16v-96a16 16 0 0 1 16-16z m0 576h800a16 16 0 0 1 16 16v96a16 16 0 0 1-16 16H112a16 16 0 0 1-16-16v-96a16 16 0 0 1 16-16z m0-272h160a16 16 0 0 1 16 16v64a16 16 0 0 1-16 16H112a16 16 0 0 1-16-16v-64a16 16 0 0 1 16-16z m640 0h160a16 16 0 0 1 16 16v64a16 16 0 0 1-16 16H752a16 16 0 0 1-16-16v-64a16 16 0 0 1 16-16z m-320 0h160a16 16 0 0 1 16 16v64a16 16 0 0 1-16 16H432a16 16 0 0 1-16-16v-64a16 16 0 0 1 16-16z" fill="#444444"></path></svg>