<svg viewBox="0 0 1024 1024" width="18" height="18"><path d="M0 512a512 512 0 1 0 1024 0A512 512 0 0 0 0 512z" fill="#999999" p-id="5879"></path><path d="M290.157714 778.752a34.230857 34.230857 0 0 1-24.210285-58.514286L730.916571 255.268571a34.230857 34.230857 0 0 1 48.420572 48.420572L314.368 768.731429a34.230857 34.230857 0 0 1-24.137143 10.020571z" fill="#FFFFFF" p-id="5880"></path><path d="M755.2 778.752a34.157714 34.157714 0 0 1-24.283429-10.020571L265.947429 303.762286a34.230857 34.230857 0 0 1 48.420571-48.493715l465.042286 465.042286a34.230857 34.230857 0 0 1-24.210286 58.441143z" fill="#FFFFFF" p-id="5881"></path></svg>