<svg viewBox="0 0 1024 1024" width="18" height="18"><path class="ql-fill" d="M385.088 85.333333a42.666667 42.666667 0 1 1 0 85.333334H213.333333a42.666667 42.666667 0 0 0-42.666666 42.666666v597.333334a42.666667 42.666667 0 0 0 42.666666 42.666666h597.333334a42.666667 42.666667 0 0 0 42.666666-42.666666V640a42.666667 42.666667 0 1 1 85.333334 0v170.666667c0 70.688-57.312 128-128 128H213.333333c-70.688 0-128-57.312-128-128V213.333333c0-70.688 57.312-128 128-128z m517.44 0.501334l0.64 0.106666c0.501333 0.074667 0.992 0.170667 1.482667 0.266667l0.170666 0.042667c1.344 0.277333 2.666667 0.618667 3.946667 1.024l0.469333 0.149333a38.186667 38.186667 0 0 1 5.248 2.112c1.568 0.746667 3.114667 1.610667 4.608 2.570667l0.138667 0.106666 1.653333 1.12a42.730667 42.730667 0 0 1 5.28 4.501334l-1.098666-1.066667 0.682666 0.650667 0.426667 0.416a43.52 43.52 0 0 1 3.104 3.456l1.386667 1.834666a42.762667 42.762667 0 0 1 5.909333 11.637334l0.138667 0.458666c0.576 1.813333 1.024 3.690667 1.354666 5.6l0.106667 0.64 0.032 0.234667c0.298667 2.058667 0.458667 4.16 0.458667 6.304v277.333333a42.666667 42.666667 0 1 1-85.333334 0V230.997333L542.165333 542.165333a42.666667 42.666667 0 0 1-58.634666 1.610667l-1.706667-1.6a42.666667 42.666667 0 0 1 0-60.341333L792.992 170.666667H618.666667a42.666667 42.666667 0 0 1-42.613334-40.533334L576 128a42.666667 42.666667 0 0 1 42.666667-42.666667h277.333333a43.178667 43.178667 0 0 1 6.304 0.458667l0.224 0.042667z" p-id="9528"></path></svg>